<svg width="28" height="28" viewBox="0 0 28 28" fill="none" xmlns="http://www.w3.org/2000/svg">
<g filter="url(#filter0_d_1283_15903)">
<path d="M4.5 17H6.5V17.5H5.5V18.5H6.5V19H4.5V20H7.5V16H4.5V17ZM5.5 8H6.5V4H4.5V5H5.5V8ZM4.5 11H6.3L4.5 13.1V14H7.5V13H5.7L7.5 10.9V10H4.5V11ZM9.5 5V7H23.5V5H9.5ZM9.5 19H23.5V17H9.5V19ZM9.5 13H23.5V11H9.5V13Z" fill="black"/>
</g>
<defs>
<filter id="filter0_d_1283_15903" x="-2" y="0" width="32" height="32" filterUnits="userSpaceOnUse" color-interpolation-filters="sRGB">
<feFlood flood-opacity="0" result="BackgroundImageFix"/>
<feColorMatrix in="SourceAlpha" type="matrix" values="0 0 0 0 0 0 0 0 0 0 0 0 0 0 0 0 0 0 127 0" result="hardAlpha"/>
<feOffset dy="4"/>
<feGaussianBlur stdDeviation="2"/>
<feComposite in2="hardAlpha" operator="out"/>
<feColorMatrix type="matrix" values="0 0 0 0 0 0 0 0 0 0 0 0 0 0 0 0 0 0 0.25 0"/>
<feBlend mode="normal" in2="BackgroundImageFix" result="effect1_dropShadow_1283_15903"/>
<feBlend mode="normal" in="SourceGraphic" in2="effect1_dropShadow_1283_15903" result="shape"/>
</filter>
</defs>
</svg>
